<svg width="102.66" height="102.66" xmlns="http://www.w3.org/2000/svg" data-name="layer 1">
 <defs>
  <radialGradient gradientUnits="userSpaceOnUse" gradientTransform="matrix(1, 0, 0, -0.07, 0, -359.49)" r="44.62" cy="-6550.95" cx="49.22" id="gradient">
   <stop stop-color="#8c8c8c" offset="0"/>
   <stop stop-opacity="0.95" stop-color="#919191" offset="0.13"/>
   <stop stop-opacity="0.83" stop-color="#a0a0a0" offset="0.32"/>
   <stop stop-opacity="0.61" stop-color="#b8b8b8" offset="0.54"/>
   <stop stop-opacity="0.32" stop-color="#dadada" offset="0.78"/>
   <stop stop-opacity="0" stop-color="#fff" offset="1"/>
  </radialGradient>
  <radialGradient gradientUnits="userSpaceOnUse" gradientTransform="matrix(0.95, -0.32, -0.32, -0.95, 121.5, -275.63)" r="23.26" cy="-262.27" cx="-147.55" id="gradient_3">
   <stop stop-color="#fff" offset="0"/>
   <stop stop-opacity="0.99" stop-color="#fff" offset="0.21"/>
   <stop stop-opacity="0.96" stop-color="#fff" offset="0.34"/>
   <stop stop-opacity="0.9" stop-color="#fff" offset="0.46"/>
   <stop stop-opacity="0.81" stop-color="#fff" offset="0.56"/>
   <stop stop-opacity="0.71" stop-color="#fff" offset="0.66"/>
   <stop stop-opacity="0.58" stop-color="#fff" offset="0.74"/>
   <stop stop-opacity="0.42" stop-color="#fff" offset="0.83"/>
   <stop stop-opacity="0.24" stop-color="#fff" offset="0.91"/>
   <stop stop-opacity="0.04" stop-color="#fff" offset="0.99"/>
   <stop stop-opacity="0" stop-color="#fff" offset="1"/>
  </radialGradient>
  <radialGradient gradientUnits="userSpaceOnUse" r="54.56" cy="57.93" cx="61.19" id="gradient_2">
   <stop stop-color="#7aacdf" offset="0"/>
   <stop stop-color="#70a6dd" offset="0.27"/>
   <stop stop-color="#5496d9" offset="0.73"/>
   <stop stop-color="#408bd6" offset="1"/>
  </radialGradient>
 </defs>
 <title>博客园logo</title>
 <g>
  <title>Layer 1</title>
  <g data-name="layer 2" id="layer_2">
   <g data-name="layer 1-2" id="layer_1-2">
    <ellipse id="svg_1" fill="url(#gradient)" ry="3.22" rx="44.62" cy="99.44" cx="49.22" class="cls-1"/>
    <path id="svg_2" fill="#8dcefc" d="m49.22,1a48.22,48.22 0 1 0 48.22,48.22a48.22,48.22 0 0 0 -48.22,-48.22zm-15.22,76.06a10.46,10.46 0 1 1 10.43,-10.46a10.46,10.46 0 0 1 -10.43,10.46zm25.11,-4a6.5,6.5 0 0 1 -6.5,-6.5c0,-9.81 -8.51,-18.1 -18.58,-18.1a6.5,6.5 0 0 1 0,-13c17.12,0 31.58,14.24 31.58,31.1a6.5,6.5 0 0 1 -6.53,6.54l0.03,-0.04zm20.61,-6.06l-0.56,0a6.5,6.5 0 0 1 -6.47,-6c-1.34,-15.71 -13.12,-32.5 -32.29,-32.5a6.5,6.5 0 0 1 0,-13c23.6,0 43.08,19.13 45.25,44.5a6.51,6.51 0 0 1 -5.93,7z" class="cls-2"/>
    <circle id="svg_3" stroke="#457ab5" stroke-width="2px" stroke-miterlimit="10" fill="none" r="48.22" cy="49.22" cx="49.22" class="cls-3"/>
    <path id="svg_4" stroke="url(#gradient_3)" stroke-width="2px" stroke-miterlimit="10" fill="none" d="m35.2,5.89c23.88,-7.78 50,5.36 57.41,29.05" class="cls-4"/>
    <path id="svg_5" fill="url(#gradient_2)" d="m49.22,4.6a44.62,44.62 0 1 0 44.62,44.62a44.62,44.62 0 0 0 -44.62,-44.62zm-15.22,72.46a10.46,10.46 0 1 1 10.43,-10.46a10.46,10.46 0 0 1 -10.43,10.46zm25.11,-4a6.5,6.5 0 0 1 -6.5,-6.5c0,-9.81 -8.51,-18.1 -18.58,-18.1a6.5,6.5 0 0 1 0,-13c17.12,0 31.58,14.24 31.58,31.1a6.5,6.5 0 0 1 -6.53,6.54l0.03,-0.04zm20.61,-6.06l-0.56,0a6.5,6.5 0 0 1 -6.47,-6c-1.34,-15.71 -13.12,-32.5 -32.29,-32.5a6.5,6.5 0 0 1 0,-13c23.6,0 43.08,19.13 45.25,44.5a6.51,6.51 0 0 1 -5.93,7z" class="cls-5"/>
    <path id="svg_6" fill="#2e7acc" d="m79.72,67l-0.56,0a6.5,6.5 0 0 1 -6.47,-6a39.24,39.24 0 0 0 -4.45,-15a56.64,56.64 0 0 0 -37,-13.58a57,57 0 0 0 -25.31,5.97a44.61,44.61 0 0 0 79.69,36.61a51.4,51.4 0 0 0 -2.86,-9a6.55,6.55 0 0 1 -3.04,1zm-45.72,10.06a10.46,10.46 0 1 1 10.43,-10.46a10.46,10.46 0 0 1 -10.43,10.46zm25.11,-4a6.5,6.5 0 0 1 -6.5,-6.5c0,-9.81 -8.51,-18.1 -18.58,-18.1a6.5,6.5 0 0 1 0,-13c17.12,0 31.58,14.24 31.58,31.1a6.5,6.5 0 0 1 -6.53,6.54l0.03,-0.04z" class="cls-6"/>
    <path id="svg_7" fill="#e33e06" d="m115.08,24.88l0,-14.64l4.26,0l0,14.64l6.06,0l0,4.2l-6.06,0l0,36l-4.26,0l0,-36l-6.48,0l0,-4.2l6.48,0zm35.76,22.92l0,-3l4.16,0l0,3l7.86,0l0,3.84l-7.86,0l0,8.76c0,3.12 -1.56,4.68 -4.62,4.68l-6.6,0l-0.9,-4c2.1,0.18 4.14,0.3 6.06,0.3c1.2,0 1.86,-0.66 1.86,-2l0,-7.74l-26,0l0,-3.84l26.04,0zm-9,-33.36l0,-4.14l4.16,0l0,4.14l7,0a34.08,34.08 0 0 0 -1.74,-3.6l3.72,-0.6a39.19,39.19 0 0 1 1.56,4.2l5.16,0l0,3.66l-15.7,0l0,4.14l13.6,0l0,21.76l-4,0l0,-4.18l-9.6,0l0,3.78l-4.14,0l0,-3.78l-9.56,0l0,4.18l-4,0l0,-21.76l13.56,0l0,-4.14l-15.68,0l0,-3.66l15.66,0zm0.16,44.94l-2.7,2.7a56.61,56.61 0 0 0 -8.3,-7.74l2.64,-2.52a58.52,58.52 0 0 1 8.36,7.56zm-0.12,-29.58l0,-4.2l-9.58,0l0,4.2l9.58,0zm0,7.08l0,-4.08l-9.58,0l0,4.08l9.58,0zm4.12,-7.08l9.6,0l0,-4.2l-9.6,0l0,4.2zm0,7.08l9.6,0l0,-4.08l-9.6,0l0,4.08z" class="cls-7"/>
    <path id="svg_8" fill="#e33e06" d="m192.06,20.68c-0.9,1.38 -1.8,2.7 -2.76,4l22.14,0l0,3.48a32.73,32.73 0 0 1 -10.62,9.06a74.75,74.75 0 0 0 22,4.74l-1,3.9a70,70 0 0 1 -25.5,-6.42c-7.08,3.24 -16,5.76 -26.82,7.62l-1.62,-3.84c9.66,-1.56 17.7,-3.54 24.06,-6.06a54.93,54.93 0 0 1 -8.46,-6.16a57.2,57.2 0 0 1 -7.5,5.64l-2.76,-3.36a44.52,44.52 0 0 0 14.64,-13.5l4.2,0.9zm27.72,5.32l-4.38,0l0,-7.48l-40,0l0,7.48l-4.4,0l0,-11.38l22,0a39.15,39.15 0 0 0 -2.22,-4.2l4.74,-0.72c0.72,1.44 1.38,3.12 2.1,4.92l22.14,0l0.02,11.38zm-6.72,39.36l-4.2,0l0,-2.62l-25.8,0l0,2.58l-4.2,0l0,-18.78l34.2,0l0,18.82zm-4.2,-6.48l0,-8.4l-25.8,0l0,8.4l25.8,0zm-2.58,-30.58l-20.1,0l-0.18,0.18a53.6,53.6 0 0 0 10.38,6.72a36,36 0 0 0 9.9,-6.9z" class="cls-7"/>
    <path id="svg_9" fill="#e33e06" d="m280,65.14l-4.32,0l0,-2.4l-40.48,0l0,2.4l-4.32,0l0,-52.32l49.12,0l0,52.32zm-4.32,-6.24l0,-42.12l-40.48,0l0,42.12l40.48,0zm-4.2,-26.34l0,3.84l-9.6,0l0,12.3c0,1.44 0.6,2.16 1.92,2.16l2.2,0a3.05,3.05 0 0 0 1.92,-0.54c0.72,-0.42 1.14,-2.52 1.38,-6.24l3.6,1.2c-0.48,4.44 -1.08,7.14 -1.92,8s-2.16,1.08 -4.14,1.14l-4.34,0a4.46,4.46 0 0 1 -3.42,-1.32a5,5 0 0 1 -1.2,-3.48l0,-13.22l-5.7,0c-0.54,4.92 -1.68,8.7 -3.48,11.46c-2,3.12 -5.22,5.52 -9.42,7.32l-2,-3.48a16.49,16.49 0 0 0 8.16,-6.12a22.43,22.43 0 0 0 2.88,-9.18l-8.92,0l0,-3.84l32.08,0zm-3.4,-10.26l0,3.84l-25.26,0l0,-3.84l25.26,0z" class="cls-7"/>
    <path id="svg_10" fill="#8c8c8c" d="m123.37,79a6.18,6.18 0 0 1 5.31,2.52l-1.5,1.38a4.32,4.32 0 0 0 -3.69,-1.9c-3.09,0 -5,2.37 -5,5.58s1.92,5.61 5,5.61a4.37,4.37 0 0 0 3.69,-1.89l1.5,1.38a6.18,6.18 0 0 1 -5.31,2.52c-4.32,0 -7.23,-3.3 -7.23,-7.62s2.91,-7.58 7.23,-7.58z" class="cls-8"/>
    <path id="svg_11" fill="#8c8c8c" d="m141.61,84.36c0,-2.55 -1.29,-3.36 -3.24,-3.36a5.59,5.59 0 0 0 -4.29,2.25l0,10.59l-2.25,0l0,-14.49l2.25,0l0,2.1a7.22,7.22 0 0 1 5.16,-2.45c3,0 4.62,1.53 4.62,4.68l0,10.16l-2.25,0l0,-9.48z" class="cls-8"/>
    <path id="svg_12" fill="#8c8c8c" d="m148.36,73.83l2.25,0l0,7.71a6,6 0 0 1 4.89,-2.54c3.78,0 6.45,3 6.45,7.62s-2.67,7.59 -6.45,7.59a6.11,6.11 0 0 1 -4.89,-2.52l0,2.16l-2.25,0l0,-20.02zm6.57,18.36c2.94,0 4.68,-2.37 4.68,-5.58s-1.74,-5.61 -4.68,-5.61a5.39,5.39 0 0 0 -4.32,2.34l0,6.57a5.36,5.36 0 0 0 4.32,2.28z" class="cls-8"/>
    <path id="svg_13" fill="#8c8c8c" d="m165.61,73.83l2.25,0l0,20l-2.25,0l0,-20z" class="cls-8"/>
    <path id="svg_14" fill="#8c8c8c" d="m171.52,86.58c0,-4.2 2.76,-7.59 7.17,-7.59s7.17,3.39 7.17,7.59s-2.76,7.62 -7.17,7.62s-7.17,-3.42 -7.17,-7.62zm12,0c0,-2.94 -1.71,-5.58 -4.8,-5.58s-4.83,2.64 -4.83,5.58s1.74,5.61 4.83,5.61s4.77,-2.64 4.77,-5.61l0.03,0z" class="cls-8"/>
    <path id="svg_15" fill="#8c8c8c" d="m190.63,95.88a5.53,5.53 0 0 0 4.71,2c2.4,0 4.65,-1.17 4.65,-4.35l0,-2.09a6.06,6.06 0 0 1 -4.86,2.56c-3.78,0 -6.45,-2.82 -6.45,-7.5s2.64,-7.5 6.45,-7.5a6,6 0 0 1 4.87,2.54l0,-2.19l2.25,0l0,14.07c0,4.8 -3.36,6.3 -6.9,6.3a7.39,7.39 0 0 1 -5.85,-2.16l1.13,-1.68zm9.37,-12.54a5.34,5.34 0 0 0 -4.33,-2.34c-2.91,0 -4.65,2.31 -4.65,5.52s1.74,5.48 4.65,5.48a5.36,5.36 0 0 0 4.33,-2.33l0,-6.33z" class="cls-8"/>
    <path id="svg_16" fill="#8c8c8c" d="m206.65,90.3a6.54,6.54 0 0 0 4.77,2.07c2.22,0 3.42,-1 3.42,-2.4c0,-1.59 -1.77,-2.1 -3.72,-2.58c-2.46,-0.57 -5.25,-1.23 -5.25,-4.23c0,-2.25 1.95,-4.17 5.4,-4.17a7.36,7.36 0 0 1 5.37,2.1l-1,1.56a5.62,5.62 0 0 0 -4.32,-1.83c-2,0 -3.21,0.9 -3.21,2.19s1.65,1.86 3.54,2.31c2.52,0.57 5.43,1.29 5.43,4.5c0,2.43 -2,4.38 -5.7,4.38a7.71,7.71 0 0 1 -5.85,-2.28l1.12,-1.62z" class="cls-8"/>
    <path id="svg_17" fill="#8c8c8c" d="m221.89,90.84a1.65,1.65 0 1 1 -1.65,1.65l0,0a1.66,1.66 0 0 1 1.65,-1.65z" class="cls-8"/>
    <path id="svg_18" fill="#8c8c8c" d="m233.77,79a6.18,6.18 0 0 1 5.31,2.52l-1.5,1.38a4.32,4.32 0 0 0 -3.69,-1.9c-3.09,0 -5,2.37 -5,5.58s1.92,5.61 5,5.61a4.37,4.37 0 0 0 3.69,-1.89l1.5,1.38a6.18,6.18 0 0 1 -5.31,2.52c-4.32,0 -7.23,-3.3 -7.23,-7.62s2.91,-7.58 7.23,-7.58z" class="cls-8"/>
    <path id="svg_19" fill="#8c8c8c" d="m241.39,86.58c0,-4.2 2.76,-7.59 7.17,-7.59s7.17,3.39 7.17,7.59s-2.73,7.62 -7.17,7.62s-7.17,-3.42 -7.17,-7.62zm12,0c0,-2.94 -1.71,-5.58 -4.8,-5.58s-4.83,2.64 -4.83,5.58s1.74,5.61 4.83,5.61s4.77,-2.64 4.77,-5.61l0.03,0z" class="cls-8"/>
    <path id="svg_20" fill="#8c8c8c" d="m276.88,84c0,-1.83 -0.81,-3 -2.67,-3a5.07,5.07 0 0 0 -3.84,2.22l0,10.62l-2.25,0l0,-9.84c0,-1.83 -0.78,-3 -2.67,-3a5.09,5.09 0 0 0 -3.81,2.25l0,10.59l-2.25,0l0,-14.49l2.25,0l0,2.1a6.25,6.25 0 0 1 4.68,-2.45a3.72,3.72 0 0 1 3.9,2.7a6.1,6.1 0 0 1 4.86,-2.7c2.64,0 4.05,1.47 4.05,4.38l0,10.46l-2.25,0l0,-9.84z" class="cls-8"/>
   </g>
  </g>
 </g>
</svg>